<?xml version="1.0" encoding="iso-8859-1"?>
<!-- Generator: Adobe Illustrator 16.0.4, SVG Export Plug-In . SVG Version: 6.00 Build 0)  -->
<!DOCTYPE svg PUBLIC "-//W3C//DTD SVG 1.1//EN" "http://www.w3.org/Graphics/SVG/1.1/DTD/svg11.dtd">
<svg version="1.1" xmlns="http://www.w3.org/2000/svg" xmlns:xlink="http://www.w3.org/1999/xlink" x="0px" y="0px" width="32px"
	 height="32px" viewBox="0 0 32 32" style="enable-background:new 0 0 32 32;" xml:space="preserve">
<g id="Layer_1">
	
		<image style="display:none;overflow:visible;" width="156" height="50" xlink:href="../../../../Desktop/mug design/Screen Shot 2015-07-15 at 12.10.44 PM.png"  transform="matrix(2.0769 0 0 2.0769 14.6875 25.0938)">
	</image>
</g>
<g id="Layer_2">
	<path d="M18.333,16l8.891-8.891c0.645-0.645,0.645-1.689,0-2.333c-0.645-0.645-1.689-0.645-2.333,0L16,13.667L7.109,4.775
		c-0.645-0.645-1.689-0.645-2.333,0c-0.645,0.644-0.645,1.689,0,2.333L13.667,16l-8.891,8.891c-0.645,0.644-0.645,1.689,0,2.333
		c0.322,0.322,0.744,0.483,1.167,0.483s0.844-0.161,1.167-0.483L16,18.333l8.891,8.891c0.322,0.322,0.745,0.483,1.167,0.483
		c0.422,0,0.845-0.161,1.167-0.483c0.645-0.644,0.645-1.689,0-2.333L18.333,16z"/>
	<path d="M27.738,17.65H4.261c-0.742,0-1.345-0.739-1.345-1.65s0.603-1.65,1.345-1.65h23.477c0.743,0,1.345,0.739,1.345,1.65
		S28.481,17.65,27.738,17.65z"/>
	<g>
		<path d="M4.525,24.657c0,1.849,0.702,2.805,2.805,2.805h13.517L4.525,10.121V24.657z"/>
		<path d="M24.67,4.537H11.153l16.322,17.342V7.343C27.476,5.494,26.774,4.537,24.67,4.537z"/>
	</g>
</g>
</svg>
